<svg xmlns="http://www.w3.org/2000/svg" xmlns:xlink="http://www.w3.org/1999/xlink" version="1.1" style="enable-background:new 0 0 512 512;" xml:space="preserve" width="512" height="512"><rect id="backgroundrect" width="100%" height="100%" x="0" y="0" fill="none" stroke="none"/>


















<g class="currentLayer" style=""><title>Layer 1</title><g id="svg_1">
	<g id="svg_2">
		<path d="M278.406,22.407c-86.155,0-161.824,46.757-202.333,116.783c-4.148,7.171-1.698,16.347,5.473,20.495    c7.172,4.148,16.347,1.696,20.495-5.474c35.237-60.91,101.094-101.804,176.365-101.804C390.668,52.407,482,143.738,482,256.001    s-91.332,203.594-203.594,203.594c-75.317,0-141.153-40.934-176.366-101.807c-4.148-7.171-13.323-9.62-20.495-5.474    c-7.171,4.148-9.622,13.324-5.473,20.495c40.519,70.047,116.201,116.785,202.334,116.785C407.514,489.595,512,385.119,512,256.001    C512,126.892,407.525,22.407,278.406,22.407z" id="svg_3"/>
	</g>
</g><g id="svg_4" class="" transform="">
	<g id="svg_5" transform="">
		<path d="M74.88702410459518,240.43603515625 c-8.284000396728516,0 -15,6.716000080108643 -15,15 s6.716000080108643,15 15,15 h233.0279998779297 v-30 H74.88702410459518 z" id="svg_6" transform=""/>
	</g>
</g><g id="svg_7" class="" transform="">
	<g id="svg_8" transform="">
		<path d="M410.69030743837357,243.176025390625 l-54.78099822998047,-38.62099838256836 c-9.916000366210938,-6.989999771118164 -23.644001007080078,0.11600000411272049 -23.644001007080078,12.260000228881836 v77.24099731445312 c0,12.194000244140625 13.756999969482422,19.226999282836914 23.64299964904785,12.260000228881836 l54.78099822998047,-38.619998931884766 C419.16830426454544,261.718017578125 419.1452940106392,249.13902282714844 410.69030743837357,243.176025390625 z" id="svg_9" transform=""/>
	</g>
</g><g id="svg_10">
</g><g id="svg_11">
</g><g id="svg_12">
</g><g id="svg_13">
</g><g id="svg_14">
</g><g id="svg_15">
</g><g id="svg_16">
</g><g id="svg_17">
</g><g id="svg_18">
</g><g id="svg_19">
</g><g id="svg_20">
</g><g id="svg_21">
</g><g id="svg_22">
</g><g id="svg_23">
</g><g id="svg_24">
</g></g></svg>